<svg xmlns="http://www.w3.org/2000/svg" width="16" height="16" viewBox="0 0 568 501" fill="#1185fe"><path d="M123.121 33.664C188.241 82.553 258.281 181.68 284 234.873c25.719-53.192 95.759-152.32 160.879-201.21C491.866-1.611 568-28.906 568 57.947c0 17.346-9.945 145.713-15.778 166.555-20.275 72.453-94.155 90.933-159.875 79.748C507.222 323.8 536.444 388.56 500.222 453.32c-76.124 136.148-218.443-34.163-236.889-77.837-3.093-7.322-4.527-10.747-4.333-7.817-3.093 7.322-4.527 10.747-4.333 7.817-18.446 43.674-160.764 213.985-236.889 77.837C-18.444 388.56 10.778 323.8 125.653 304.25c-65.72 11.185-139.6-7.295-159.875-79.748C-40.09 203.66-50.036 75.293-50.036 57.947-50.036-28.906 26.134-1.611 123.121 33.664z" transform="translate(50.036 0)"/></svg>
