<svg xmlns="http://www.w3.org/2000/svg" width="16" height="16" viewBox="0 0 74 79" fill="#6364ff"><path d="M73.7 17.9c-1-5.7-6.4-10.1-12.8-11.7C56.8 5.3 51.4 4.7 42 4.5h-.2c-9.5.2-14.8.8-18.9 1.7C13.8 8.5 9.7 13 8.6 18.7c-.5 3-1 6.5-1.1 10.2-.2 12.2.4 24.3.9 26.3C9.5 60.3 12 65 16 68.6c4.7 4.2 14 6.4 22 6.8 9 .5 17-1.2 18-2 .7-.5 1-3.5 1.1-6.1.1-2.8-.9-3.1-.9-3.1-4 1.1-8.2 1.7-12.5 1.8-7.2.1-14.5-1.3-15.3-9.2-.1-.9-.2-1.8-.2-2.8 0-.1 0-.1.1-.1 4 1 8.1 1.5 12.3 1.8 2.2.1 4.5.2 6.7 0 6-.6 11.6-1.9 16.8-5.3.1-.1.1-.1.2-.2 4.4-3.3 7-10.2 7-19.6 0-.3-.4-8.7-1.4-14.4zM61.4 39H52V22c0-3.6-1.5-5.4-4.5-5.4-3.3 0-5 2.2-5 6.5v9.3H33V23c0-4.3-1.7-6.5-5-6.5-3 0-4.5 1.8-4.5 5.4v17H14c0-7.8-1-14.1 1-17.5 2.2-3.7 5.8-5.7 10-5.7 4.9 0 8.6 1.9 11 5.6l2.4 4 2.4-4c2.4-3.7 6.1-5.6 11-5.6 4.2 0 7.8 2 10 5.7 2 3.4 1 9.7 1 17.5z"/></svg>
